<?xml version="1.0" encoding="utf-8"?>
<svg viewBox="323.944 0 139.839 225.352" xmlns="http://www.w3.org/2000/svg">
  <g transform="matrix(0.250436, 0, 0, 0.566351, 355.689423, 1.081514)" style="">
    <path id="Border_Arrow_Right" d="M381.658,183.472L201.878,3.691c-2.43-2.43-5.618-3.621-8.794-3.597 c-0.096,0-0.168-0.048-0.265-0.048H12.364c-6.641,0-12.03,5.39-12.03,12.03c0,0.096,0.048,0.168,0.048,0.265 c-0.012,3.176,1.179,6.364,3.597,8.794l171.384,171.384L3.618,364.263c-4.824,4.824-4.824,12.644,0,17.468 c2.863,2.863,6.749,3.814,10.466,3.284h176.978c3.717,0.529,7.603-0.421,10.466-3.284l180.118-180.118 c2.502-2.502,3.645-5.799,3.549-9.083C385.292,189.27,384.149,185.974,381.658,183.472z M187.381,360.955H41.862l159.329-159.329 c2.502-2.502,3.645-5.799,3.549-9.083c0.096-3.272-1.047-6.569-3.549-9.071L41.838,24.106h145.579l168.412,168.412L187.381,360.955 z" style="fill-rule: evenodd; stroke-miterlimit: 43; stroke-dasharray: 4px; stroke-dashoffset: 23px; vector-effect: non-scaling-stroke; paint-order: markers; stroke-width: 0px; stroke-linecap: square; stroke: rgba(236, 25, 25, 0); fill: rgb(220, 215, 254);"/>
    <g/>
    <g/>
    <g/>
    <g/>
    <g/>
    <g/>
  </g>
  <g transform="matrix(1, 0, 0, 1, 436.172283, 57.399568)"/>
  <g transform="matrix(1, 0, 0, 1, 436.172283, 57.399568)"/>
  <g transform="matrix(1, 0, 0, 1, 436.172283, 57.399568)"/>
  <g transform="matrix(1, 0, 0, 1, 436.172283, 57.399568)"/>
  <g transform="matrix(1, 0, 0, 1, 436.172283, 57.399568)"/>
  <g transform="matrix(1, 0, 0, 1, 436.172283, 57.399568)"/>
  <g transform="matrix(1, 0, 0, 1, 436.172283, 57.399568)"/>
  <g transform="matrix(1, 0, 0, 1, 436.172283, 57.399568)"/>
  <g transform="matrix(1, 0, 0, 1, 436.172283, 57.399568)"/>
  <g transform="matrix(1, 0, 0, 1, 436.172283, 57.399568)"/>
  <g transform="matrix(1, 0, 0, 1, 436.172283, 57.399568)"/>
  <g transform="matrix(1, 0, 0, 1, 436.172283, 57.399568)"/>
  <g transform="matrix(1, 0, 0, 1, 436.172283, 57.399568)"/>
  <g transform="matrix(1, 0, 0, 1, 436.172283, 57.399568)"/>
  <g transform="matrix(1, 0, 0, 1, 436.172283, 57.399568)"/>
</svg>